<?xml version="1.0" encoding="UTF-8" standalone="no"?>
<!DOCTYPE svg PUBLIC "-//W3C//DTD SVG 1.1//EN" "http://www.w3.org/Graphics/SVG/1.1/DTD/svg11.dtd">
<svg width="100%" height="100%" viewBox="0 0 870 679" version="1.1" xmlns="http://www.w3.org/2000/svg" xmlns:xlink="http://www.w3.org/1999/xlink" xml:space="preserve" xmlns:serif="http://www.serif.com/" style="fill-rule:evenodd;clip-rule:evenodd;stroke-linejoin:round;stroke-miterlimit:2;">
    <g transform="matrix(1,0,0,1,-230.961085,-277.24)">
        <g transform="matrix(1,0,0,1,-3142.267151,1310.386315)">
            <g id="Mesa-de-trabajo-1" serif:id="Mesa de trabajo 1" transform="matrix(0.702339,0,0,0.583422,1348.945814,-1044.238228)">
                <rect x="2882.2" y="21.6" width="1238.1" height="1159.9" style="fill:white;fill-rule:nonzero;"/>
            </g>
            <g id="_-Path-" serif:id="&lt;Path&gt;" transform="matrix(0.683084,0,0,0.557015,1416.396614,-1029.13581)">
                <rect x="2864.7" y="-7.2" width="1273" height="1217.6" style="fill-rule:nonzero;"/>
            </g>
            <g id="_-Group-" serif:id="&lt;Group&gt;" transform="matrix(1,0,0,1,308.646377,-1310.386315)">
                <g id="_-Group-1" serif:id="&lt;Group&gt;">
                    <path id="_-Compound-Path-" serif:id="&lt;Compound Path&gt;" d="M3694.5,911.9L3690.3,911.9L3690.3,857L3697.1,857L3697.2,893L3714.4,857L3718.6,857L3718.6,911.9L3711.7,911.9L3711.7,879.4L3694.5,911.9Z" style="fill:white;fill-rule:nonzero;"/>
                    <path id="_-Compound-Path-1" serif:id="&lt;Compound Path&gt;" d="M3664,857L3668.3,857C3671.633,857 3674.167,857.9 3675.9,859.7C3677.7,861.433 3678.6,863.967 3678.6,867.3L3678.6,901.6C3678.6,904.933 3677.7,907.5 3675.9,909.3C3674.167,911.033 3671.633,911.9 3668.3,911.9L3664,911.9C3660.667,911.9 3658.1,911.033 3656.3,909.3C3654.567,907.5 3653.7,904.933 3653.7,901.6L3653.7,867.3C3653.7,863.967 3654.567,861.433 3656.3,859.7C3658.1,857.9 3660.667,857 3664,857ZM3668.3,863.9L3664,863.9C3662.867,863.9 3662,864.2 3661.4,864.8C3660.8,865.4 3660.5,866.233 3660.5,867.3L3660.5,901.6C3660.5,902.733 3660.8,903.6 3661.4,904.2C3662,904.8 3662.867,905.1 3664,905.1L3668.3,905.1C3669.433,905.1 3670.3,904.8 3670.9,904.2C3671.433,903.6 3671.7,902.733 3671.7,901.6L3671.7,867.3C3671.7,866.167 3671.4,865.3 3670.8,864.7C3670.2,864.167 3669.367,863.9 3668.3,863.9Z" style="fill:white;"/>
                    <path id="_-Compound-Path-2" serif:id="&lt;Compound Path&gt;" d="M3627.4,857L3642,857L3642,911.9L3635.1,911.9L3635.1,893.9L3631.8,893.9L3623.5,911.9L3615.6,911.9L3624.9,893C3623.167,893 3621.8,892.8 3620.8,892.4C3619.867,892.067 3619.033,891.267 3618.3,890C3617.5,888.667 3617.1,886.533 3617.1,883.6L3617.1,867.3C3617.1,863.9 3617.967,861.333 3619.7,859.6C3621.433,857.867 3624,857 3627.4,857ZM3635.1,887.1L3635.1,863.9L3627.1,863.9C3625.967,863.9 3625.1,864.2 3624.5,864.8C3623.967,865.4 3623.7,866.233 3623.7,867.3L3623.7,883.6C3623.7,884.867 3623.933,885.767 3624.4,886.3C3624.933,886.833 3625.833,887.1 3627.1,887.1L3635.1,887.1Z" style="fill:white;"/>
                    <path id="_-Compound-Path-3" serif:id="&lt;Compound Path&gt;" d="M3581.3,911.9L3574.4,911.9L3574.4,857L3579.9,857L3589.8,876.1L3599.8,857L3605.3,857L3605.3,911.9L3598.4,911.9L3598.4,875L3592.9,885.3L3586.8,885.3L3581.3,875L3581.3,911.9Z" style="fill:white;fill-rule:nonzero;"/>
                    <path id="_-Compound-Path-4" serif:id="&lt;Compound Path&gt;" d="M3548.1,856.9L3552.4,856.9C3555.733,856.9 3558.3,857.8 3560.1,859.6C3561.833,861.333 3562.7,863.867 3562.7,867.2L3562.7,911.9L3555.9,911.9L3555.9,886L3544.7,886L3544.7,911.9L3537.8,911.9L3537.8,867.2C3537.8,863.867 3538.7,861.333 3540.5,859.6C3542.233,857.8 3544.767,856.9 3548.1,856.9ZM3552.4,863.8L3548.1,863.8C3546.967,863.8 3546.1,864.1 3545.5,864.7C3544.967,865.3 3544.7,866.133 3544.7,867.2L3544.7,879.1L3555.9,879.1L3555.9,867.2C3555.9,866.067 3555.6,865.233 3555,864.7C3554.4,864.1 3553.533,863.8 3552.4,863.8Z" style="fill:white;"/>
                    <path id="_-Compound-Path-5" serif:id="&lt;Compound Path&gt;" d="M3504.7,905.1L3519.3,905.1L3519.3,857L3526.1,857L3526.1,911.9L3504.7,911.9L3504.7,905.1Z" style="fill:white;fill-rule:nonzero;"/>
                    <path id="_-Compound-Path-6" serif:id="&lt;Compound Path&gt;" d="M3490.3,863.8L3475.8,863.8L3475.8,856.9L3497.2,856.9L3497.2,911.9L3475.8,911.9L3475.8,905L3490.3,905L3490.3,885.2L3481.7,885.2L3481.7,878.4L3490.3,878.4L3490.3,863.8Z" style="fill:white;fill-rule:nonzero;"/>
                    <path id="_-Compound-Path-7" serif:id="&lt;Compound Path&gt;" d="M3453.6,857L3457.9,857C3461.233,857 3463.8,857.9 3465.6,859.7C3467.333,861.433 3468.2,863.967 3468.2,867.3L3468.2,875C3468.2,878.333 3467.333,880.9 3465.6,882.7C3463.8,884.433 3461.233,885.3 3457.9,885.3L3453.6,885.3C3451.333,885.3 3450.2,886.433 3450.2,888.7L3450.2,901.6C3450.2,902.733 3450.5,903.6 3451.1,904.2C3451.633,904.8 3452.467,905.1 3453.6,905.1L3457.9,905.1C3459.033,905.1 3459.9,904.8 3460.5,904.2C3461.033,903.6 3461.3,902.733 3461.3,901.6L3461.3,896.5L3468.2,896.5L3468.2,901.6C3468.2,904.933 3467.333,907.5 3465.6,909.3C3463.8,911.033 3461.233,911.9 3457.9,911.9L3453.6,911.9C3450.2,911.9 3447.633,911.033 3445.9,909.3C3444.167,907.5 3443.3,904.933 3443.3,901.6L3443.3,888.7C3443.3,885.367 3444.167,882.833 3445.9,881.1C3447.7,879.3 3450.267,878.4 3453.6,878.4L3457.9,878.4C3460.167,878.4 3461.3,877.267 3461.3,875L3461.3,867.3C3461.3,866.167 3461.033,865.3 3460.5,864.7C3459.9,864.167 3459.033,863.9 3457.9,863.9L3453.6,863.9C3451.333,863.9 3450.2,864.733 3450.2,866.4L3450.2,870.9L3443.3,870.9L3443.3,866.4C3443.3,863.333 3444.167,861 3445.9,859.4C3447.7,857.8 3450.267,857 3453.6,857Z" style="fill:white;fill-rule:nonzero;"/>
                </g>
                <g id="_-Group-2" serif:id="&lt;Group&gt;">
                    <path id="_-Compound-Path-8" serif:id="&lt;Compound Path&gt;" d="M3800.8,740.2C3802,740.067 3803.3,740.5 3804.7,741.5L3811.2,746.4C3812.333,747.267 3813.033,748.067 3813.3,748.8C3813.633,749.467 3813.7,750.033 3813.5,750.5C3813.367,751.033 3813.033,751.633 3812.5,752.3L3822.9,754.3L3820.5,757.5L3810.8,755.4L3809.8,756.7L3817,762.1L3814.9,764.8L3793.1,748.3L3797.5,742.5C3798.5,741.167 3799.6,740.4 3800.8,740.2ZM3809.5,751.4C3809.9,750.933 3810.067,750.5 3810,750.1C3809.933,749.767 3809.667,749.4 3809.2,749L3802.7,744.1C3802.233,743.767 3801.8,743.633 3801.4,743.7C3801,743.767 3800.633,744.033 3800.3,744.5L3797.9,747.6L3807.1,754.6L3809.5,751.4Z" style="fill:rgb(227,6,19);"/>
                    <path id="_-Compound-Path-9" serif:id="&lt;Compound Path&gt;" d="M3809.6,727.4C3810.8,727.133 3812.1,727.467 3813.5,728.4L3827.7,737.8C3829.1,738.733 3829.933,739.8 3830.2,741C3830.467,742.267 3830.133,743.6 3829.2,745L3828,746.8C3827.067,748.133 3826,748.933 3824.8,749.2C3823.6,749.467 3822.3,749.133 3820.9,748.2L3806.6,738.8C3805.2,737.867 3804.4,736.8 3804.2,735.6C3803.933,734.333 3804.267,733.033 3805.2,731.7L3806.3,729.9C3807.233,728.5 3808.333,727.667 3809.6,727.4ZM3807.7,734.8C3807.767,735.2 3808.033,735.567 3808.5,735.9L3822.8,745.4C3823.2,745.667 3823.633,745.767 3824.1,745.7C3824.5,745.633 3824.833,745.367 3825.1,744.9L3826.3,743.1C3826.633,742.633 3826.767,742.2 3826.7,741.8C3826.633,741.4 3826.333,741.033 3825.8,740.7L3811.6,731.3C3811.133,730.967 3810.7,730.833 3810.3,730.9C3809.9,730.967 3809.533,731.233 3809.2,731.7L3808,733.5C3807.733,733.967 3807.633,734.4 3807.7,734.8Z" style="fill:rgb(227,6,19);"/>
                    <path id="_-Compound-Path-10" serif:id="&lt;Compound Path&gt;" d="M3817,714.6C3818.133,714.2 3819.367,714.4 3820.7,715.2L3822.9,716.5L3821.2,719.4L3819,718.2C3818.267,717.733 3817.6,718 3817,719L3816,720.9C3815.667,721.367 3815.567,721.8 3815.7,722.2C3815.767,722.6 3816.067,722.933 3816.6,723.2L3831.4,731.8C3831.867,732.067 3832.3,732.167 3832.7,732.1C3833.1,731.967 3833.433,731.667 3833.7,731.2L3834.8,729.3C3835.067,728.833 3835.133,728.4 3835,728C3834.933,727.6 3834.667,727.267 3834.2,727L3832,725.7L3833.7,722.7L3835.9,724C3837.3,724.867 3838.167,725.9 3838.5,727.1C3838.833,728.3 3838.567,729.6 3837.7,731L3836.7,732.9C3835.833,734.367 3834.8,735.233 3833.6,735.5C3832.4,735.833 3831.067,735.6 3829.6,734.8L3814.9,726.2C3813.433,725.333 3812.533,724.3 3812.2,723.1C3811.867,721.9 3812.133,720.567 3813,719.1L3814.1,717.3C3814.9,715.833 3815.867,714.933 3817,714.6Z" style="fill:rgb(227,6,19);fill-rule:nonzero;"/>
                    <path id="_-Compound-Path-11" serif:id="&lt;Compound Path&gt;" d="M3829.5,712.6L3822.4,701.8L3824,698.5L3832.3,711L3848.5,710.8L3846.7,714.2L3832.3,714.3L3843.8,720.1L3842.2,723.2L3817.8,710.8L3819.3,707.7L3829.4,712.9L3829.5,712.6Z" style="fill:rgb(227,6,19);fill-rule:nonzero;"/>
                    <path id="_-Compound-Path-12" serif:id="&lt;Compound Path&gt;" d="M3856.5,692.2L3855.2,695.4L3833,686.4L3831.4,690.4L3828.2,689.1L3832.7,678L3835.9,679.3L3834.3,683.3L3856.5,692.2Z" style="fill:rgb(227,6,19);fill-rule:nonzero;"/>
                    <path id="_-Compound-Path-13" serif:id="&lt;Compound Path&gt;" d="M3838.3,665.7C3839.433,665.1 3840.767,665.1 3842.3,665.7L3863.4,672.8L3862.3,676L3850.1,671.9L3848.3,677.2L3860.5,681.3L3859.4,684.6L3838.3,677.4C3836.767,676.867 3835.733,676.033 3835.2,674.9C3834.6,673.833 3834.567,672.5 3835.1,670.9L3835.8,668.9C3836.333,667.3 3837.167,666.233 3838.3,665.7ZM3838.4,673.3C3838.533,673.7 3838.867,674 3839.4,674.2L3845.1,676.1L3846.8,670.8L3841.2,668.9C3840.733,668.7 3840.3,668.7 3839.9,668.9C3839.5,669.1 3839.233,669.467 3839.1,670L3838.4,672C3838.2,672.533 3838.2,672.967 3838.4,673.3Z" style="fill:rgb(227,6,19);"/>
                    <path id="_-Compound-Path-14" serif:id="&lt;Compound Path&gt;" d="M3867.4,658.8L3864.6,669.1L3838.2,661.7L3839.1,658.4L3862.2,664.9L3864.1,657.9L3867.4,658.8Z" style="fill:rgb(227,6,19);fill-rule:nonzero;"/>
                    <path id="_-Compound-Path-15" serif:id="&lt;Compound Path&gt;" d="M3853.5,648L3843.9,639.3L3844.7,635.7L3855.9,645.8L3871.4,641.5L3870.6,645.2L3856.7,648.9L3869.2,651.7L3868.5,655.1L3841.7,649.1L3842.4,645.8L3853.5,648.2L3853.5,648Z" style="fill:rgb(227,6,19);fill-rule:nonzero;"/>
                    <path id="_-Compound-Path-16" serif:id="&lt;Compound Path&gt;" d="M3848.1,622.5C3849.033,621.767 3850.233,621.533 3851.7,621.8L3853.9,622.2L3853.4,625.5L3851.2,625.2C3850.333,625.067 3849.833,625.567 3849.7,626.7L3849.3,628.8C3849.233,629.333 3849.333,629.767 3849.6,630.1C3849.8,630.433 3850.167,630.633 3850.7,630.7L3854.5,631.4C3855.633,631.533 3856.3,631.033 3856.5,629.9L3856.8,627.8C3857.067,626.2 3857.7,625.033 3858.7,624.3C3859.767,623.567 3861.1,623.333 3862.7,623.6L3869.1,624.6C3870.7,624.867 3871.867,625.5 3872.6,626.5C3873.333,627.5 3873.567,628.833 3873.3,630.5L3873,632.6C3872.733,634.267 3872.1,635.467 3871.1,636.2C3870.1,636.933 3868.767,637.167 3867.1,636.9L3864.6,636.4L3865.1,633.1L3867.6,633.5C3868.133,633.567 3868.6,633.5 3869,633.3C3869.333,633.033 3869.533,632.633 3869.6,632.1L3869.9,629.9C3870.033,629.367 3869.967,628.933 3869.7,628.6C3869.5,628.267 3869.1,628.067 3868.5,628L3862.2,626.9C3861.067,626.767 3860.4,627.267 3860.2,628.4L3859.9,630.5C3859.633,632.167 3859,633.333 3858,634C3857,634.733 3855.667,634.967 3854,634.7L3850.2,634.1C3848.533,633.833 3847.333,633.2 3846.6,632.2C3845.933,631.2 3845.733,629.867 3846,628.2L3846.3,626.1C3846.567,624.433 3847.167,623.233 3848.1,622.5Z" style="fill:rgb(227,6,19);fill-rule:nonzero;"/>
                    <path id="_-Compound-Path-17" serif:id="&lt;Compound Path&gt;" d="M3850.4,599.9C3851.333,599.1 3852.633,598.767 3854.3,598.9L3862.5,599.5C3864.167,599.633 3865.4,600.167 3866.2,601.1C3867,602.033 3867.333,603.333 3867.2,605L3866.9,608.9L3875.9,609.5L3875.6,613L3848.3,610.9L3848.8,603.6C3848.933,601.933 3849.467,600.7 3850.4,599.9ZM3863.8,604.8C3863.867,604.2 3863.767,603.767 3863.5,603.5C3863.233,603.167 3862.8,602.967 3862.2,602.9L3854.1,602.3C3853.567,602.3 3853.133,602.433 3852.8,602.7C3852.467,602.9 3852.3,603.3 3852.3,603.9L3852,607.8L3863.5,608.6L3863.8,604.8Z" style="fill:rgb(227,6,19);"/>
                    <path id="_-Compound-Path-18" serif:id="&lt;Compound Path&gt;" d="M3850.9,585C3851.767,584.2 3853.033,583.8 3854.7,583.8L3871.8,584.2C3873.467,584.2 3874.733,584.667 3875.6,585.6C3876.467,586.467 3876.9,587.733 3876.9,589.4L3876.8,591.6C3876.8,593.267 3876.333,594.5 3875.4,595.3C3874.533,596.167 3873.267,596.6 3871.6,596.6L3854.5,596.2C3852.833,596.2 3851.567,595.733 3850.7,594.8C3849.833,593.933 3849.433,592.667 3849.5,591L3849.5,588.8C3849.5,587.133 3849.967,585.867 3850.9,585ZM3853.3,592.3C3853.567,592.633 3853.967,592.8 3854.5,592.8L3871.7,593.2C3872.233,593.2 3872.633,593.067 3872.9,592.8C3873.233,592.467 3873.4,592.033 3873.4,591.5L3873.4,589.3C3873.467,588.767 3873.333,588.367 3873,588.1C3872.733,587.767 3872.333,587.6 3871.8,587.6L3854.7,587.2C3854.1,587.2 3853.667,587.333 3853.4,587.6C3853.067,587.867 3852.9,588.3 3852.9,588.9L3852.9,591.1C3852.9,591.633 3853.033,592.033 3853.3,592.3Z" style="fill:rgb(227,6,19);"/>
                    <path id="_-Compound-Path-19" serif:id="&lt;Compound Path&gt;" d="M3849.4,574.1C3849.333,572.3 3849.667,570.967 3850.4,570.1C3851.2,569.3 3852.5,568.867 3854.3,568.8L3871.4,568.2C3873.267,568.133 3874.6,568.5 3875.4,569.3C3876.2,570.1 3876.633,571.4 3876.7,573.2L3876.9,580.4L3849.6,581.3L3849.4,574.1ZM3871.6,571.7L3854.5,572.2C3853.9,572.267 3853.467,572.433 3853.2,572.7C3852.933,572.967 3852.8,573.4 3852.8,574L3852.9,577.8L3873.4,577.2L3873.3,573.3C3873.3,572.167 3872.733,571.633 3871.6,571.7Z" style="fill:rgb(227,6,19);"/>
                    <path id="_-Compound-Path-20" serif:id="&lt;Compound Path&gt;" d="M3849.3,555.3C3850.033,554.367 3851.167,553.833 3852.7,553.7L3855.2,553.5L3855.5,556.9L3852.9,557.1C3852.1,557.167 3851.733,557.767 3851.8,558.9L3852,561.1C3852.067,561.633 3852.233,562.033 3852.5,562.3C3852.833,562.567 3853.3,562.7 3853.9,562.7L3870.9,561.2C3871.433,561.133 3871.833,560.967 3872.1,560.7C3872.367,560.367 3872.5,559.933 3872.5,559.4L3872.3,557.2C3872.233,556.667 3872.033,556.267 3871.7,556C3871.433,555.733 3871,555.633 3870.4,555.7L3867.9,555.9L3867.6,552.5L3870.1,552.2C3871.767,552.067 3873.1,552.4 3874.1,553.2C3875.033,554 3875.567,555.233 3875.7,556.9L3875.9,559.1C3876.033,560.767 3875.7,562.067 3874.9,563C3874.1,563.933 3872.867,564.467 3871.2,564.6L3854.2,566.1C3852.533,566.233 3851.2,565.9 3850.2,565.1C3849.267,564.3 3848.733,563.067 3848.6,561.4L3848.4,559.2C3848.267,557.533 3848.567,556.233 3849.3,555.3Z" style="fill:rgb(227,6,19);fill-rule:nonzero;"/>
                    <path id="_-Compound-Path-21" serif:id="&lt;Compound Path&gt;" d="M3847.5,540.5C3848.233,539.5 3849.433,538.9 3851.1,538.7L3873.1,535.7L3873.6,539.1L3860.8,540.8L3861.6,546.4L3874.3,544.6L3874.8,548L3852.8,551C3851.133,551.267 3849.8,551 3848.8,550.2C3847.8,549.467 3847.2,548.267 3847,546.6L3846.7,544.5C3846.5,542.833 3846.767,541.5 3847.5,540.5ZM3851,547.4C3851.333,547.6 3851.767,547.667 3852.3,547.6L3858.2,546.8L3857.4,541.3L3851.5,542.1C3850.967,542.167 3850.6,542.367 3850.4,542.7C3850.133,543.033 3850.033,543.467 3850.1,544L3850.4,546.2C3850.467,546.733 3850.667,547.133 3851,547.4Z" style="fill:rgb(227,6,19);"/>
                    <path id="_-Compound-Path-22" serif:id="&lt;Compound Path&gt;" d="M3844.8,525.8C3845.4,524.8 3846.467,524.167 3848,523.9L3850.2,523.5L3850.8,526.8L3848.6,527.2C3847.8,527.4 3847.5,528.067 3847.7,529.2L3848.1,531.3C3848.167,531.833 3848.367,532.2 3848.7,532.4C3849.033,532.667 3849.5,532.733 3850.1,532.6L3853.8,532C3854.933,531.733 3855.4,531.067 3855.2,530L3854.8,527.8C3854.533,526.2 3854.733,524.867 3855.4,523.8C3856.133,522.8 3857.3,522.167 3858.9,521.9L3865.3,520.7C3866.9,520.367 3868.2,520.567 3869.2,521.3C3870.267,521.967 3870.933,523.133 3871.2,524.8L3871.6,526.9C3871.933,528.567 3871.733,529.9 3871,530.9C3870.333,531.9 3869.167,532.567 3867.5,532.9L3865,533.4L3864.4,530L3866.9,529.5C3867.433,529.433 3867.833,529.233 3868.1,528.9C3868.3,528.567 3868.367,528.1 3868.3,527.5L3867.9,525.4C3867.767,524.867 3867.533,524.5 3867.2,524.3C3866.867,524.033 3866.433,523.933 3865.9,524L3859.5,525.2C3858.433,525.4 3858,526.067 3858.2,527.2L3858.6,529.3C3858.867,530.967 3858.667,532.3 3858,533.3C3857.267,534.367 3856.1,535.033 3854.5,535.3L3850.7,536C3849.033,536.333 3847.7,536.133 3846.7,535.4C3845.7,534.733 3845.033,533.567 3844.7,531.9L3844.3,529.8C3844.033,528.133 3844.2,526.8 3844.8,525.8Z" style="fill:rgb(227,6,19);fill-rule:nonzero;"/>
                    <path id="_-Compound-Path-23" serif:id="&lt;Compound Path&gt;" d="M3867.8,508.6L3868.6,511.9L3845.2,517.4L3846.2,521.5L3842.9,522.3L3840.1,510.7L3843.5,509.9L3844.4,514.1L3867.8,508.6Z" style="fill:rgb(227,6,19);fill-rule:nonzero;"/>
                </g>
                <g id="_-Group-3" serif:id="&lt;Group&gt;">
                    <g id="_-Group-4" serif:id="&lt;Group&gt;">
                        <path id="_-Compound-Path-24" serif:id="&lt;Compound Path&gt;" d="M3117.3,821.6L3117.3,846.9L3111.9,846.9L3111.9,804.2L3115.2,804.2L3128.7,832.2L3128.8,804.2L3134.1,804.2L3134.1,846.9L3130.8,846.9L3117.3,821.6Z" style="fill:rgb(227,6,19);fill-rule:nonzero;"/>
                        <path id="_-Compound-Path-25" serif:id="&lt;Compound Path&gt;" d="M3147.6,804.2L3147.6,838.9C3147.6,839.767 3147.833,840.433 3148.3,840.9C3148.767,841.367 3149.433,841.6 3150.3,841.6L3153.7,841.6C3154.567,841.6 3155.233,841.367 3155.7,840.9C3156.167,840.433 3156.4,839.767 3156.4,838.9L3156.4,804.2L3161.8,804.2L3161.8,846.7L3154.3,846.9L3150.3,846.9C3147.7,846.9 3145.7,846.2 3144.3,844.8C3142.9,843.467 3142.2,841.5 3142.2,838.9L3142.2,804.2L3147.6,804.2Z" style="fill:rgb(227,6,19);fill-rule:nonzero;"/>
                        <path id="_-Compound-Path-26" serif:id="&lt;Compound Path&gt;" d="M3175.2,821.6L3175.2,846.9L3169.8,846.9L3169.8,804.2L3173.1,804.2L3186.7,832.2L3186.7,804.2L3192.1,804.2L3192.1,846.9L3188.8,846.9L3175.2,821.6Z" style="fill:rgb(227,6,19);fill-rule:nonzero;"/>
                        <path id="_-Compound-Path-27" serif:id="&lt;Compound Path&gt;" d="M3217.6,806.1C3219,807.367 3219.7,809.167 3219.7,811.5L3219.7,815.5L3214.3,815.5L3214.3,811.5C3214.3,810.233 3213.4,809.6 3211.6,809.6L3208.2,809.6C3207.4,809.6 3206.767,809.8 3206.3,810.2C3205.833,810.667 3205.6,811.333 3205.6,812.2L3205.6,838.9C3205.6,839.767 3205.833,840.433 3206.3,840.9C3206.767,841.367 3207.4,841.6 3208.2,841.6L3211.6,841.6C3212.467,841.6 3213.133,841.367 3213.6,840.9C3214.067,840.433 3214.3,839.767 3214.3,838.9L3214.3,834.9L3219.7,834.9L3219.7,838.9C3219.7,841.5 3219,843.467 3217.6,844.8C3216.267,846.2 3214.267,846.9 3211.6,846.9L3208.2,846.9C3205.6,846.9 3203.6,846.2 3202.2,844.8C3200.867,843.467 3200.2,841.5 3200.2,838.9L3200.2,812.2C3200.2,809.6 3200.867,807.633 3202.2,806.3C3203.6,804.9 3205.6,804.2 3208.2,804.2L3211.6,804.2C3214.267,804.2 3216.267,804.833 3217.6,806.1Z" style="fill:rgb(227,6,19);fill-rule:nonzero;"/>
                        <path id="_-Compound-Path-28" serif:id="&lt;Compound Path&gt;" d="M3245.3,806.2C3246.633,807.6 3247.3,809.6 3247.3,812.2L3247.3,846.8L3242,846.8L3242,826.7L3233.2,826.7L3233.2,846.8L3227.8,846.8L3227.8,812.2C3227.8,809.6 3228.5,807.6 3229.9,806.2C3231.233,804.867 3233.233,804.2 3235.9,804.2L3239.3,804.2C3241.9,804.2 3243.9,804.867 3245.3,806.2ZM3233.9,810.2C3233.433,810.6 3233.2,811.267 3233.2,812.2L3233.2,821.4L3242,821.4L3242,812.2C3242,811.333 3241.767,810.667 3241.3,810.2C3240.833,809.733 3240.167,809.5 3239.3,809.5L3235.9,809.5C3235.033,809.5 3234.367,809.733 3233.9,810.2Z" style="fill:rgb(227,6,19);"/>
                        <path id="_-Compound-Path-29" serif:id="&lt;Compound Path&gt;" d="M3280.2,820.9L3286.9,820.9L3286.9,826.2L3280.2,826.2L3280.2,841.6L3280.1,841.6L3280.1,846.9L3274.8,846.9L3274.8,804.2L3291.6,804.2L3291.6,809.6L3280.2,809.6L3280.2,820.9Z" style="fill:rgb(227,6,19);fill-rule:nonzero;"/>
                        <path id="_-Compound-Path-30" serif:id="&lt;Compound Path&gt;" d="M3305.1,804.2L3305.1,838.9C3305.1,839.767 3305.333,840.433 3305.8,840.9C3306.2,841.367 3306.867,841.6 3307.8,841.6L3311.2,841.6C3312.067,841.6 3312.733,841.367 3313.2,840.9C3313.667,840.433 3313.9,839.767 3313.9,838.9L3313.9,804.2L3319.2,804.2L3319.2,846.7L3311.8,846.9L3307.8,846.9C3305.133,846.9 3303.133,846.2 3301.8,844.8C3300.4,843.467 3299.7,841.5 3299.7,838.9L3299.7,804.2L3305.1,804.2Z" style="fill:rgb(227,6,19);fill-rule:nonzero;"/>
                        <rect id="_-Compound-Path-31" serif:id="&lt;Compound Path&gt;" x="3328.4" y="804.2" width="5.4" height="42.7" style="fill:rgb(227,6,19);fill-rule:nonzero;"/>
                        <path id="_-Compound-Path-32" serif:id="&lt;Compound Path&gt;" d="M3361.8,818.2L3357.5,826.2L3352.6,826.2L3348.3,818.2L3348.3,846.9L3342.9,846.9L3342.9,804.2L3347.3,804.2L3355.1,819.1L3362.9,804.2L3367.2,804.2L3367.2,846.9L3361.8,846.9L3361.8,818.2Z" style="fill:rgb(227,6,19);fill-rule:nonzero;"/>
                        <path id="_-Compound-Path-33" serif:id="&lt;Compound Path&gt;" d="M3392.7,806.3C3394.1,807.633 3394.8,809.6 3394.8,812.2L3394.8,838.9C3394.8,841.5 3394.1,843.467 3392.7,844.8C3391.367,846.2 3389.367,846.9 3386.7,846.9L3383.3,846.9C3380.7,846.9 3378.7,846.2 3377.3,844.8C3375.967,843.467 3375.3,841.5 3375.3,838.9L3375.3,812.2C3375.3,809.6 3375.967,807.633 3377.3,806.3C3378.7,804.9 3380.7,804.2 3383.3,804.2L3386.7,804.2C3389.367,804.2 3391.367,804.9 3392.7,806.3ZM3381.3,810.2C3380.833,810.667 3380.6,811.333 3380.6,812.2L3380.6,838.9C3380.6,839.767 3380.833,840.433 3381.3,840.9C3381.767,841.367 3382.433,841.6 3383.3,841.6L3386.7,841.6C3387.567,841.6 3388.233,841.367 3388.7,840.9C3389.167,840.433 3389.4,839.767 3389.4,838.9L3389.4,812.2C3389.4,811.333 3389.167,810.7 3388.7,810.3C3388.3,809.833 3387.633,809.6 3386.7,809.6L3383.3,809.6C3382.433,809.6 3381.767,809.8 3381.3,810.2Z" style="fill:rgb(227,6,19);"/>
                        <path id="_-Compound-Path-34" serif:id="&lt;Compound Path&gt;" d="M3420.4,806.1C3421.733,807.367 3422.4,809.167 3422.4,811.5L3422.4,815L3417,815L3417,811.5C3417,810.233 3416.133,809.6 3414.4,809.6L3411,809.6C3410.133,809.6 3409.467,809.8 3409,810.2C3408.533,810.667 3408.3,811.333 3408.3,812.2L3408.3,818.2C3408.3,820 3409.2,820.9 3411,820.9L3414.4,820.9C3417,820.9 3419,821.567 3420.4,822.9C3421.733,824.3 3422.4,826.3 3422.4,828.9L3422.4,838.9C3422.4,841.5 3421.733,843.467 3420.4,844.8C3419,846.2 3417,846.9 3414.4,846.9L3411,846.9C3408.333,846.9 3406.333,846.2 3405,844.8C3403.6,843.467 3402.9,841.5 3402.9,838.9L3402.9,834.9L3408.3,834.9L3408.3,838.9C3408.3,839.767 3408.5,840.433 3408.9,840.9C3409.367,841.367 3410.067,841.6 3411,841.6L3414.4,841.6C3415.2,841.6 3415.833,841.367 3416.3,840.9C3416.767,840.433 3417,839.767 3417,838.9L3417,828.9C3417,827.1 3416.133,826.2 3414.4,826.2L3411,826.2C3408.333,826.2 3406.333,825.533 3405,824.2C3403.6,822.8 3402.9,820.8 3402.9,818.2L3402.9,812.2C3402.9,809.6 3403.6,807.633 3405,806.3C3406.333,804.9 3408.333,804.2 3411,804.2L3414.4,804.2C3417,804.2 3419,804.833 3420.4,806.1Z" style="fill:rgb(227,6,19);fill-rule:nonzero;"/>
                    </g>
                </g>
                <path id="_-Path-1" serif:id="&lt;Path&gt;" d="M3584.7,502.5L3575.1,502.5C3535.6,502.5 3503.6,534.5 3503.6,574L3503.6,699.1C3503.6,732.2 3526.2,760.1 3556.8,768.2L3556.8,845L3603,845L3603,768.2C3633.6,760.1 3656.2,732.2 3656.2,699.1L3656.2,574C3656.2,534.5 3624.2,502.5 3584.7,502.5Z" style="fill:rgb(227,6,19);fill-rule:nonzero;"/>
                <g id="_-Group-5" serif:id="&lt;Group&gt;">
                    <rect id="_-Path-2" serif:id="&lt;Path&gt;" x="3327.5" y="727.2" width="366.4" height="1.1" style="fill:white;fill-rule:nonzero;"/>
                    <rect id="_-Path-3" serif:id="&lt;Path&gt;" x="3327.5" y="721.6" width="366.4" height="1.1" style="fill:white;fill-rule:nonzero;"/>
                    <rect id="_-Path-4" serif:id="&lt;Path&gt;" x="3327.5" y="716.1" width="366.4" height="1.1" style="fill:white;fill-rule:nonzero;"/>
                    <rect id="_-Path-5" serif:id="&lt;Path&gt;" x="3327.5" y="710.5" width="366.4" height="1.2" style="fill:white;fill-rule:nonzero;"/>
                    <rect id="_-Path-6" serif:id="&lt;Path&gt;" x="3327.5" y="705" width="366.4" height="1.1" style="fill:white;fill-rule:nonzero;"/>
                    <rect id="_-Path-7" serif:id="&lt;Path&gt;" x="3327.5" y="699.5" width="366.4" height="1.1" style="fill:white;fill-rule:nonzero;"/>
                    <rect id="_-Path-8" serif:id="&lt;Path&gt;" x="3327.5" y="693.9" width="366.4" height="1.1" style="fill:white;fill-rule:nonzero;"/>
                    <rect id="_-Path-9" serif:id="&lt;Path&gt;" x="3328.5" y="688.4" width="366.4" height="1.1" style="fill:white;fill-rule:nonzero;"/>
                    <rect id="_-Path-10" serif:id="&lt;Path&gt;" x="3327.5" y="682.9" width="366.4" height="1.1" style="fill:white;fill-rule:nonzero;"/>
                    <rect id="_-Path-11" serif:id="&lt;Path&gt;" x="3327.5" y="677.3" width="366.4" height="1.1" style="fill:white;fill-rule:nonzero;"/>
                    <rect id="_-Path-12" serif:id="&lt;Path&gt;" x="3327.5" y="671.8" width="366.4" height="1.1" style="fill:white;fill-rule:nonzero;"/>
                    <rect id="_-Path-13" serif:id="&lt;Path&gt;" x="3327.5" y="666.3" width="366.4" height="1.1" style="fill:white;fill-rule:nonzero;"/>
                    <rect id="_-Path-14" serif:id="&lt;Path&gt;" x="3327.5" y="660.7" width="366.4" height="1.1" style="fill:white;fill-rule:nonzero;"/>
                    <rect id="_-Path-15" serif:id="&lt;Path&gt;" x="3327.5" y="655.2" width="366.4" height="1.1" style="fill:white;fill-rule:nonzero;"/>
                    <rect id="_-Path-16" serif:id="&lt;Path&gt;" x="3327.5" y="649.7" width="366.4" height="1.1" style="fill:white;fill-rule:nonzero;"/>
                    <rect id="_-Path-17" serif:id="&lt;Path&gt;" x="3327.5" y="644.1" width="366.4" height="1.1" style="fill:white;fill-rule:nonzero;"/>
                    <rect id="_-Path-18" serif:id="&lt;Path&gt;" x="3327.5" y="638.6" width="366.4" height="1.1" style="fill:white;fill-rule:nonzero;"/>
                    <rect id="_-Path-19" serif:id="&lt;Path&gt;" x="3327.5" y="633.1" width="366.4" height="1.1" style="fill:white;fill-rule:nonzero;"/>
                    <rect id="_-Path-20" serif:id="&lt;Path&gt;" x="3327.5" y="627.5" width="366.4" height="1.1" style="fill:white;fill-rule:nonzero;"/>
                    <rect id="_-Path-21" serif:id="&lt;Path&gt;" x="3327.5" y="622" width="366.4" height="1.1" style="fill:white;fill-rule:nonzero;"/>
                    <rect id="_-Path-22" serif:id="&lt;Path&gt;" x="3327.5" y="616.4" width="366.4" height="1.1" style="fill:white;fill-rule:nonzero;"/>
                    <rect id="_-Path-23" serif:id="&lt;Path&gt;" x="3327.5" y="610.9" width="366.4" height="1.1" style="fill:white;fill-rule:nonzero;"/>
                    <rect id="_-Path-24" serif:id="&lt;Path&gt;" x="3327.5" y="605.4" width="366.4" height="1.1" style="fill:white;fill-rule:nonzero;"/>
                    <rect id="_-Path-25" serif:id="&lt;Path&gt;" x="3327.5" y="599.8" width="366.4" height="1.1" style="fill:white;fill-rule:nonzero;"/>
                    <rect id="_-Path-26" serif:id="&lt;Path&gt;" x="3327.5" y="594.3" width="366.4" height="1.1" style="fill:white;fill-rule:nonzero;"/>
                    <rect id="_-Path-27" serif:id="&lt;Path&gt;" x="3327.5" y="588.8" width="366.4" height="1.1" style="fill:white;fill-rule:nonzero;"/>
                </g>
                <g id="_-Clip-Group-" serif:id="&lt;Clip Group&gt;">
                    <clipPath id="_clip1">
                        <path d="M3672.34,814.61L3891.46,853.53L3845.56,277.24L3319,323.14L3320.45,588.75L3672.34,588.75L3672.34,814.61Z"/>
                    </clipPath>
                    <g clip-path="url(#_clip1)">
                        <g id="_-Group-6" serif:id="&lt;Group&gt;">
                            <path id="_-Path-28" serif:id="&lt;Path&gt;" d="M3556.2,535L3453.7,346.6L3452.1,347.4L3554.3,536C3554.9,535.667 3555.533,535.333 3556.2,535Z" style="fill:white;fill-rule:nonzero;"/>
                            <path id="_-Path-29" serif:id="&lt;Path&gt;" d="M3553.8,536.3L3441.6,353.5L3440.1,354.4L3552,537.4C3552.6,537 3553.2,536.633 3553.8,536.3Z" style="fill:white;fill-rule:nonzero;"/>
                            <path id="_-Path-30" serif:id="&lt;Path&gt;" d="M3545.2,542.6L3397.5,387.2L3397.4,387.1L3396.2,388.4L3543.7,544.1C3544.233,543.567 3544.733,543.067 3545.2,542.6Z" style="fill:white;fill-rule:nonzero;"/>
                            <path id="_-Path-31" serif:id="&lt;Path&gt;" d="M3417.2,370.2L3547.7,540.5C3548.233,540.1 3548.8,539.667 3549.4,539.2L3418.6,369.2L3417.2,370.2Z" style="fill:white;fill-rule:nonzero;"/>
                            <path id="_-Path-32" serif:id="&lt;Path&gt;" d="M3547.3,540.9L3407.8,377.9L3406.4,379L3545.6,542.3C3546.133,541.833 3546.7,541.367 3547.3,540.9Z" style="fill:white;fill-rule:nonzero;"/>
                            <path id="_-Path-33" serif:id="&lt;Path&gt;" d="M3582,529.4L3587.4,315L3587.4,314.9L3585.6,314.9L3579.8,529.4L3582,529.4Z" style="fill:white;fill-rule:nonzero;"/>
                            <path id="_-Path-34" serif:id="&lt;Path&gt;" d="M3561,532.8L3478.8,334.7L3477.1,335.4L3559.1,533.6C3559.7,533.333 3560.333,533.067 3561,532.8Z" style="fill:white;fill-rule:nonzero;"/>
                            <path id="_-Path-35" serif:id="&lt;Path&gt;" d="M3558.6,533.9L3466.1,340.3L3464.5,341.1L3556.6,534.8C3557.267,534.467 3557.933,534.167 3558.6,533.9Z" style="fill:white;fill-rule:nonzero;"/>
                            <path id="_-Path-36" serif:id="&lt;Path&gt;" d="M3576.6,529.4L3559.6,315.6L3557.8,315.7L3574.5,529.6C3575.233,529.533 3575.933,529.467 3576.6,529.4Z" style="fill:white;fill-rule:nonzero;"/>
                            <path id="_-Path-37" serif:id="&lt;Path&gt;" d="M3577.2,529.4L3579.3,529.4L3573.5,314.9L3571.7,314.9L3577.2,529.4Z" style="fill:white;fill-rule:nonzero;"/>
                            <path id="_-Path-38" serif:id="&lt;Path&gt;" d="M3574,529.7L3545.8,317L3544,317.2L3571.8,529.9C3572.533,529.833 3573.267,529.767 3574,529.7Z" style="fill:white;fill-rule:nonzero;"/>
                            <path id="_-Path-39" serif:id="&lt;Path&gt;" d="M3571.3,530L3532.1,319.1L3530.3,319.4L3569.2,530.4C3569.933,530.267 3570.633,530.133 3571.3,530Z" style="fill:white;fill-rule:nonzero;"/>
                            <path id="_-Path-40" serif:id="&lt;Path&gt;" d="M3566.1,531.1L3505,325.5L3503.3,326L3564.1,531.8C3564.767,531.533 3565.433,531.3 3566.1,531.1Z" style="fill:white;fill-rule:nonzero;"/>
                            <path id="_-Path-41" serif:id="&lt;Path&gt;" d="M3563.6,531.9L3491.8,329.8L3490.1,330.4L3561.5,532.6C3562.167,532.4 3562.867,532.167 3563.6,531.9Z" style="fill:white;fill-rule:nonzero;"/>
                            <path id="_-Path-42" serif:id="&lt;Path&gt;" d="M3528.6,577.9L3314.2,572.5L3314.1,573.4L3314.1,574.3L3528.6,580.1L3528.6,577.9Z" style="fill:white;fill-rule:nonzero;"/>
                            <path id="_-Path-43" serif:id="&lt;Path&gt;" d="M3531,564.8L3325.2,504.1L3324.7,505.8L3530.4,566.9C3530.6,566.167 3530.8,565.467 3531,564.8Z" style="fill:white;fill-rule:nonzero;"/>
                            <path id="_-Path-44" serif:id="&lt;Path&gt;" d="M3530.2,567.4L3321.6,517.5L3321.2,519.2L3529.7,569.5C3529.9,568.767 3530.067,568.067 3530.2,567.4Z" style="fill:white;fill-rule:nonzero;"/>
                            <path id="_-Path-45" serif:id="&lt;Path&gt;" d="M3531.9,562.3L3329.6,490.9L3329,492.6L3531.1,564.3C3531.367,563.633 3531.633,562.967 3531.9,562.3Z" style="fill:white;fill-rule:nonzero;"/>
                            <path id="_-Path-46" serif:id="&lt;Path&gt;" d="M3532.9,559.8L3334.6,477.9L3333.9,479.6L3532,561.8C3532.267,561.133 3532.567,560.467 3532.9,559.8Z" style="fill:white;fill-rule:nonzero;"/>
                            <path id="_-Path-47" serif:id="&lt;Path&gt;" d="M3529.6,570L3318.7,531.1L3318.3,532.8L3529.2,572.1C3529.333,571.367 3529.467,570.667 3529.6,570Z" style="fill:white;fill-rule:nonzero;"/>
                            <path id="_-Path-48" serif:id="&lt;Path&gt;" d="M3528.8,575.3L3314.9,558.6L3314.8,560.4L3528.7,577.4C3528.7,576.667 3528.733,575.967 3528.8,575.3Z" style="fill:white;fill-rule:nonzero;"/>
                            <path id="_-Path-49" serif:id="&lt;Path&gt;" d="M3529.2,572.6L3316.4,544.8L3316.2,546.6L3528.9,574.8C3528.967,574.067 3529.067,573.333 3529.2,572.6Z" style="fill:white;fill-rule:nonzero;"/>
                            <path id="_-Path-50" serif:id="&lt;Path&gt;" d="M3536.7,552.8L3353.7,440.9L3353.6,440.9L3352.7,442.4L3535.5,554.6C3535.9,554 3536.3,553.4 3536.7,552.8Z" style="fill:white;fill-rule:nonzero;"/>
                            <path id="_-Path-51" serif:id="&lt;Path&gt;" d="M3539.8,548.5L3369.5,418L3368.4,419.4L3538.5,550.2C3538.9,549.6 3539.333,549.033 3539.8,548.5Z" style="fill:white;fill-rule:nonzero;"/>
                            <path id="_-Path-52" serif:id="&lt;Path&gt;" d="M3534,557.4L3340.3,465.2L3339.5,466.8L3533.1,559.4C3533.367,558.733 3533.667,558.067 3534,557.4Z" style="fill:white;fill-rule:nonzero;"/>
                            <path id="_-Path-53" serif:id="&lt;Path&gt;" d="M3538.2,550.6L3361.3,429.2L3360.2,430.7L3536.9,552.3C3537.3,551.767 3537.733,551.2 3538.2,550.6Z" style="fill:white;fill-rule:nonzero;"/>
                            <path id="_-Path-54" serif:id="&lt;Path&gt;" d="M3541.5,546.4L3378.3,407.2L3378.2,407.2L3377.1,408.6L3540.1,548C3540.567,547.467 3541.033,546.933 3541.5,546.4Z" style="fill:white;fill-rule:nonzero;"/>
                            <path id="_-Path-55" serif:id="&lt;Path&gt;" d="M3535.3,555.1L3346.7,452.9L3345.8,454.4L3534.2,557C3534.533,556.333 3534.9,555.7 3535.3,555.1Z" style="fill:white;fill-rule:nonzero;"/>
                            <path id="_-Path-56" serif:id="&lt;Path&gt;" d="M3543.3,544.5L3387.6,396.9L3386.4,398.2L3541.8,546C3542.333,545.467 3542.833,544.967 3543.3,544.5Z" style="fill:white;fill-rule:nonzero;"/>
                            <path id="_-Path-57" serif:id="&lt;Path&gt;" d="M3551.6,537.7L3429.9,361L3428.4,362L3549.8,538.9C3550.4,538.5 3551,538.1 3551.6,537.7Z" style="fill:white;fill-rule:nonzero;"/>
                            <path id="_-Path-58" serif:id="&lt;Path&gt;" d="M3626.1,559.4L3819.6,466.8L3818.8,465.2L3625.1,557.4C3625.433,558.067 3625.767,558.733 3626.1,559.4Z" style="fill:white;fill-rule:nonzero;"/>
                            <path id="_-Path-59" serif:id="&lt;Path&gt;" d="M3627.1,561.8L3825.2,479.6L3824.5,477.9L3626.3,559.8C3626.567,560.467 3626.833,561.133 3627.1,561.8Z" style="fill:white;fill-rule:nonzero;"/>
                            <path id="_-Path-60" serif:id="&lt;Path&gt;" d="M3624.9,557L3813.3,454.4L3812.5,452.9L3623.9,555.1C3624.233,555.7 3624.567,556.333 3624.9,557Z" style="fill:white;fill-rule:nonzero;"/>
                            <path id="_-Path-61" serif:id="&lt;Path&gt;" d="M3623.6,554.6L3806.4,442.4L3805.5,440.9L3622.5,552.8C3622.9,553.4 3623.267,554 3623.6,554.6Z" style="fill:white;fill-rule:nonzero;"/>
                            <path id="_-Path-62" serif:id="&lt;Path&gt;" d="M3620.7,550.2L3790.8,419.4L3789.7,418L3619.4,548.5C3619.8,549.033 3620.233,549.6 3620.7,550.2Z" style="fill:white;fill-rule:nonzero;"/>
                            <path id="_-Path-63" serif:id="&lt;Path&gt;" d="M3628,564.3L3830.1,492.6L3829.6,490.9L3627.3,562.3C3627.567,562.967 3627.8,563.633 3628,564.3Z" style="fill:white;fill-rule:nonzero;"/>
                            <path id="_-Path-64" serif:id="&lt;Path&gt;" d="M3622.2,552.3L3798.9,430.7L3797.9,429.2L3621,550.6C3621.4,551.2 3621.8,551.767 3622.2,552.3Z" style="fill:white;fill-rule:nonzero;"/>
                            <path id="_-Path-65" serif:id="&lt;Path&gt;" d="M3630.5,577.4L3844.3,560.4L3844.2,558.6L3630.3,575.3C3630.367,575.967 3630.433,576.667 3630.5,577.4Z" style="fill:white;fill-rule:nonzero;"/>
                            <path id="_-Path-66" serif:id="&lt;Path&gt;" d="M3628.8,566.9L3834.4,505.8L3833.9,504.1L3628.2,564.8C3628.4,565.467 3628.6,566.167 3628.8,566.9Z" style="fill:white;fill-rule:nonzero;"/>
                            <path id="_-Path-67" serif:id="&lt;Path&gt;" d="M3619,548L3782,408.6L3780.9,407.2L3617.6,546.4C3618.067,546.933 3618.533,547.467 3619,548Z" style="fill:white;fill-rule:nonzero;"/>
                            <path id="_-Path-68" serif:id="&lt;Path&gt;" d="M3630.5,577.9C3630.5,578.633 3630.533,579.367 3630.6,580.1L3845,574.3L3845,572.5L3630.5,577.9Z" style="fill:white;fill-rule:nonzero;"/>
                            <path id="_-Path-69" serif:id="&lt;Path&gt;" d="M3630.3,574.8L3842.9,546.6L3842.7,544.8L3630,572.6C3630.067,573.333 3630.167,574.067 3630.3,574.8Z" style="fill:white;fill-rule:nonzero;"/>
                            <path id="_-Path-70" serif:id="&lt;Path&gt;" d="M3629.9,572.1L3840.8,532.8L3840.5,531.1L3629.5,570C3629.633,570.667 3629.767,571.367 3629.9,572.1Z" style="fill:white;fill-rule:nonzero;"/>
                            <path id="_-Path-71" serif:id="&lt;Path&gt;" d="M3629.4,569.5L3838,519.2L3837.5,517.5L3628.9,567.4C3629.1,568.067 3629.267,568.767 3629.4,569.5Z" style="fill:white;fill-rule:nonzero;"/>
                            <path id="_-Path-72" serif:id="&lt;Path&gt;" d="M3617.3,546L3772.8,398.2L3771.5,396.9L3615.8,544.5C3616.333,544.967 3616.833,545.467 3617.3,546Z" style="fill:white;fill-rule:nonzero;"/>
                            <path id="_-Path-73" serif:id="&lt;Path&gt;" d="M3602.5,534.8L3694.7,341.1L3693.1,340.3L3600.5,533.9C3601.167,534.167 3601.833,534.467 3602.5,534.8Z" style="fill:white;fill-rule:nonzero;"/>
                            <path id="_-Path-74" serif:id="&lt;Path&gt;" d="M3597.6,532.6L3669,330.4L3667.4,329.8L3595.6,531.9C3596.267,532.167 3596.933,532.4 3597.6,532.6Z" style="fill:white;fill-rule:nonzero;"/>
                            <path id="_-Path-75" serif:id="&lt;Path&gt;" d="M3600.1,533.6L3682,335.4L3680.3,334.7L3598.1,532.8C3598.767,533.067 3599.433,533.333 3600.1,533.6Z" style="fill:white;fill-rule:nonzero;"/>
                            <path id="_-Path-76" serif:id="&lt;Path&gt;" d="M3584.6,529.6L3601.3,315.7L3599.5,315.6L3582.5,529.4C3583.233,529.467 3583.933,529.533 3584.6,529.6Z" style="fill:white;fill-rule:nonzero;"/>
                            <path id="_-Path-77" serif:id="&lt;Path&gt;" d="M3587.3,529.9L3615.1,317.2L3613.3,317L3585.2,529.7C3585.867,529.767 3586.567,529.833 3587.3,529.9Z" style="fill:white;fill-rule:nonzero;"/>
                            <path id="_-Path-78" serif:id="&lt;Path&gt;" d="M3592.5,531L3642.4,322.4L3640.7,322L3590.4,530.5C3591.133,530.633 3591.833,530.8 3592.5,531Z" style="fill:white;fill-rule:nonzero;"/>
                            <path id="_-Path-79" serif:id="&lt;Path&gt;" d="M3589.9,530.4L3628.8,319.4L3627.1,319.1L3587.8,530C3588.533,530.133 3589.233,530.267 3589.9,530.4Z" style="fill:white;fill-rule:nonzero;"/>
                            <path id="_-Path-80" serif:id="&lt;Path&gt;" d="M3595.1,531.8L3655.8,326L3654.1,325.5L3593,531.1C3593.733,531.3 3594.433,531.533 3595.1,531.8Z" style="fill:white;fill-rule:nonzero;"/>
                            <path id="_-Path-81" serif:id="&lt;Path&gt;" d="M3611.5,540.5L3741.9,370.3L3741.9,370.2L3740.5,369.2L3609.7,539.2C3610.3,539.667 3610.9,540.1 3611.5,540.5Z" style="fill:white;fill-rule:nonzero;"/>
                            <path id="_-Path-82" serif:id="&lt;Path&gt;" d="M3603,535C3603.6,535.333 3604.2,535.667 3604.8,536L3707,347.4L3705.5,346.6L3603,535Z" style="fill:white;fill-rule:nonzero;"/>
                            <path id="_-Path-83" serif:id="&lt;Path&gt;" d="M3615.4,544.1L3763,388.4L3761.7,387.1L3613.9,542.6C3614.433,543.067 3614.933,543.567 3615.4,544.1Z" style="fill:white;fill-rule:nonzero;"/>
                            <path id="_-Path-84" serif:id="&lt;Path&gt;" d="M3611.9,540.9C3612.433,541.367 3612.967,541.833 3613.5,542.3L3752.7,379L3751.3,377.9L3611.9,540.9Z" style="fill:white;fill-rule:nonzero;"/>
                            <path id="_-Path-85" serif:id="&lt;Path&gt;" d="M3607.1,537.4L3719.1,354.4L3717.5,353.5L3605.3,536.3C3605.9,536.633 3606.5,537 3607.1,537.4Z" style="fill:white;fill-rule:nonzero;"/>
                            <path id="_-Path-86" serif:id="&lt;Path&gt;" d="M3609.3,538.9L3730.7,362L3729.2,361L3607.6,537.7C3608.2,538.1 3608.767,538.5 3609.3,538.9Z" style="fill:white;fill-rule:nonzero;"/>
                            <path id="_-Path-87" serif:id="&lt;Path&gt;" d="M3568.7,530.5L3518.4,322L3516.7,322.4L3566.6,531C3567.333,530.8 3568.033,530.633 3568.7,530.5Z" style="fill:white;fill-rule:nonzero;"/>
                            <path id="_-Path-88" serif:id="&lt;Path&gt;" d="M3605.3,624.4L3717.5,807.2L3719.1,806.3L3607.1,623.3C3606.5,623.633 3605.9,624 3605.3,624.4Z" style="fill:white;fill-rule:nonzero;"/>
                            <path id="_-Path-89" serif:id="&lt;Path&gt;" d="M3603,625.7L3705.5,814.1L3707,813.3L3604.8,624.6C3604.2,625 3603.6,625.367 3603,625.7Z" style="fill:white;fill-rule:nonzero;"/>
                            <path id="_-Path-90" serif:id="&lt;Path&gt;" d="M3600.5,626.8L3693.1,820.4L3694.7,819.6L3602.5,625.9C3601.833,626.233 3601.167,626.533 3600.5,626.8Z" style="fill:white;fill-rule:nonzero;"/>
                            <path id="_-Path-91" serif:id="&lt;Path&gt;" d="M3607.6,623L3729.2,799.7L3730.7,798.7L3609.3,621.8C3608.767,622.2 3608.2,622.6 3607.6,623Z" style="fill:white;fill-rule:nonzero;"/>
                            <path id="_-Path-92" serif:id="&lt;Path&gt;" d="M3613.9,618.1L3761.7,773.6L3763,772.3L3615.4,616.6C3614.933,617.067 3614.433,617.567 3613.9,618.1Z" style="fill:white;fill-rule:nonzero;"/>
                            <path id="_-Path-93" serif:id="&lt;Path&gt;" d="M3609.7,621.4L3740.5,791.5L3741.9,790.4L3611.5,620.1C3610.9,620.567 3610.3,621 3609.7,621.4Z" style="fill:white;fill-rule:nonzero;"/>
                            <path id="_-Path-94" serif:id="&lt;Path&gt;" d="M3611.9,619.8L3751.3,782.8L3752.7,781.7L3613.5,618.4C3612.967,618.867 3612.433,619.333 3611.9,619.8Z" style="fill:white;fill-rule:nonzero;"/>
                            <path id="_-Path-95" serif:id="&lt;Path&gt;" d="M3587.8,630.7L3627.1,841.6L3628.8,841.2L3589.9,630.3C3589.233,630.433 3588.533,630.567 3587.8,630.7Z" style="fill:white;fill-rule:nonzero;"/>
                            <path id="_-Path-96" serif:id="&lt;Path&gt;" d="M3585.2,631L3613.3,843.7L3615.1,843.5L3587.3,630.8C3586.567,630.867 3585.867,630.933 3585.2,631Z" style="fill:white;fill-rule:nonzero;"/>
                            <path id="_-Path-97" serif:id="&lt;Path&gt;" d="M3615.8,616.2L3771.5,763.8L3772.8,762.5L3617.3,614.7C3616.833,615.233 3616.333,615.733 3615.8,616.2Z" style="fill:white;fill-rule:nonzero;"/>
                            <path id="_-Path-98" serif:id="&lt;Path&gt;" d="M3598.1,627.9L3680.3,826L3682,825.3L3600.1,627C3599.433,627.333 3598.767,627.633 3598.1,627.9Z" style="fill:white;fill-rule:nonzero;"/>
                            <path id="_-Path-99" serif:id="&lt;Path&gt;" d="M3584.6,631.1C3583.933,631.167 3583.233,631.2 3582.5,631.2L3599.5,845.1L3601.3,845L3584.6,631.1Z" style="fill:white;fill-rule:nonzero;"/>
                            <path id="_-Path-100" serif:id="&lt;Path&gt;" d="M3579.8,631.3L3585.6,845.8L3587.4,845.7L3582,631.3L3579.8,631.3Z" style="fill:white;fill-rule:nonzero;"/>
                            <path id="_-Path-101" serif:id="&lt;Path&gt;" d="M3593,629.5L3654.1,835.2L3655.8,834.7L3595.1,628.9C3594.433,629.167 3593.733,629.367 3593,629.5Z" style="fill:white;fill-rule:nonzero;"/>
                            <path id="_-Path-102" serif:id="&lt;Path&gt;" d="M3590.4,630.2L3640.7,838.7L3642.4,838.3L3592.5,629.7C3591.833,629.833 3591.133,630 3590.4,630.2Z" style="fill:white;fill-rule:nonzero;"/>
                            <path id="_-Path-103" serif:id="&lt;Path&gt;" d="M3595.6,628.8L3667.4,830.9L3669,830.3L3597.6,628.1C3596.933,628.3 3596.267,628.533 3595.6,628.8Z" style="fill:white;fill-rule:nonzero;"/>
                            <path id="_-Path-104" serif:id="&lt;Path&gt;" d="M3627.3,598.4L3829.6,669.8L3830.1,668.1L3628,596.4C3627.8,597.067 3627.567,597.733 3627.3,598.4Z" style="fill:white;fill-rule:nonzero;"/>
                            <path id="_-Path-105" serif:id="&lt;Path&gt;" d="M3628.2,595.9L3833.9,656.6L3834.4,654.9L3628.8,593.8C3628.6,594.467 3628.4,595.167 3628.2,595.9Z" style="fill:white;fill-rule:nonzero;"/>
                            <path id="_-Path-106" serif:id="&lt;Path&gt;" d="M3629.5,590.7L3840.5,629.6L3840.8,627.9L3629.9,588.6C3629.767,589.267 3629.633,589.967 3629.5,590.7Z" style="fill:white;fill-rule:nonzero;"/>
                            <path id="_-Path-107" serif:id="&lt;Path&gt;" d="M3628.9,593.3L3837.5,643.2L3838,641.5L3629.4,591.2C3629.267,591.933 3629.1,592.633 3628.9,593.3Z" style="fill:white;fill-rule:nonzero;"/>
                            <path id="_-Path-108" serif:id="&lt;Path&gt;" d="M3630.5,582.7L3844.9,588.2L3845,588.2L3845,586.4L3630.6,580.6C3630.533,581.333 3630.5,582.033 3630.5,582.7Z" style="fill:white;fill-rule:nonzero;"/>
                            <path id="_-Path-109" serif:id="&lt;Path&gt;" d="M3630,588.1L3842.7,615.9L3842.9,614.1L3630.3,585.9C3630.167,586.633 3630.067,587.367 3630,588.1Z" style="fill:white;fill-rule:nonzero;"/>
                            <path id="_-Path-110" serif:id="&lt;Path&gt;" d="M3630.3,585.4L3844.2,602.1L3844.3,600.3L3630.5,583.3C3630.433,583.967 3630.367,584.667 3630.3,585.4Z" style="fill:white;fill-rule:nonzero;"/>
                            <path id="_-Path-111" serif:id="&lt;Path&gt;" d="M3623.9,605.6L3812.5,707.8L3813.3,706.2L3624.9,603.7C3624.567,604.367 3624.233,605 3623.9,605.6Z" style="fill:white;fill-rule:nonzero;"/>
                            <path id="_-Path-112" serif:id="&lt;Path&gt;" d="M3621,610.1L3797.9,731.5L3798.9,730L3622.2,608.3C3621.8,608.9 3621.4,609.5 3621,610.1Z" style="fill:white;fill-rule:nonzero;"/>
                            <path id="_-Path-113" serif:id="&lt;Path&gt;" d="M3619.4,612.2L3789.7,742.7L3790.8,741.3L3620.7,610.5C3620.233,611.1 3619.8,611.667 3619.4,612.2Z" style="fill:white;fill-rule:nonzero;"/>
                            <path id="_-Path-114" serif:id="&lt;Path&gt;" d="M3622.5,607.9L3805.5,719.8L3806.4,718.3L3623.6,606.1C3623.267,606.7 3622.9,607.3 3622.5,607.9Z" style="fill:white;fill-rule:nonzero;"/>
                            <path id="_-Path-115" serif:id="&lt;Path&gt;" d="M3617.6,614.3L3780.9,753.5L3782,752.1L3619,612.6C3618.533,613.2 3618.067,613.767 3617.6,614.3Z" style="fill:white;fill-rule:nonzero;"/>
                            <path id="_-Path-116" serif:id="&lt;Path&gt;" d="M3626.3,600.8L3824.5,682.8L3825.2,681.1L3627.1,598.9C3626.833,599.567 3626.567,600.2 3626.3,600.8Z" style="fill:white;fill-rule:nonzero;"/>
                            <path id="_-Path-117" serif:id="&lt;Path&gt;" d="M3625.1,603.3L3818.8,695.5L3819.6,693.8L3626.1,601.3C3625.767,601.967 3625.433,602.633 3625.1,603.3Z" style="fill:white;fill-rule:nonzero;"/>
                            <path id="_-Path-118" serif:id="&lt;Path&gt;" d="M3531.1,596.4L3329,668.1L3329.6,669.8L3531.9,598.4C3531.633,597.733 3531.367,597.067 3531.1,596.4Z" style="fill:white;fill-rule:nonzero;"/>
                            <path id="_-Path-119" serif:id="&lt;Path&gt;" d="M3534.2,603.7L3345.8,706.2L3346.7,707.8L3535.3,605.6C3534.9,605 3534.533,604.367 3534.2,603.7Z" style="fill:white;fill-rule:nonzero;"/>
                            <path id="_-Path-120" serif:id="&lt;Path&gt;" d="M3535.5,606.1L3352.7,718.3L3353.6,719.8L3536.7,607.9C3536.3,607.3 3535.9,606.7 3535.5,606.1Z" style="fill:white;fill-rule:nonzero;"/>
                            <path id="_-Path-121" serif:id="&lt;Path&gt;" d="M3532,598.9L3333.9,681.1L3334.6,682.8L3532.9,600.8C3532.567,600.2 3532.267,599.567 3532,598.9Z" style="fill:white;fill-rule:nonzero;"/>
                            <path id="_-Path-122" serif:id="&lt;Path&gt;" d="M3533.1,601.3L3339.5,693.8L3340.3,695.5L3534,603.3C3533.667,602.633 3533.367,601.967 3533.1,601.3Z" style="fill:white;fill-rule:nonzero;"/>
                            <path id="_-Path-123" serif:id="&lt;Path&gt;" d="M3540.1,612.6L3377.1,752.1L3378.2,753.5L3541.5,614.3C3541.033,613.767 3540.567,613.2 3540.1,612.6Z" style="fill:white;fill-rule:nonzero;"/>
                            <path id="_-Path-124" serif:id="&lt;Path&gt;" d="M3538.5,610.5L3368.4,741.2L3368.4,741.3L3369.5,742.7L3539.8,612.2C3539.333,611.667 3538.9,611.1 3538.5,610.5Z" style="fill:white;fill-rule:nonzero;"/>
                            <path id="_-Path-125" serif:id="&lt;Path&gt;" d="M3536.9,608.3L3360.2,730L3361.3,731.5L3538.2,610.1C3537.733,609.5 3537.3,608.9 3536.9,608.3Z" style="fill:white;fill-rule:nonzero;"/>
                            <path id="_-Path-126" serif:id="&lt;Path&gt;" d="M3528.6,580.6L3314.1,586.4L3314.2,588.2L3528.6,582.7L3528.6,580.6Z" style="fill:white;fill-rule:nonzero;"/>
                            <path id="_-Path-127" serif:id="&lt;Path&gt;" d="M3528.9,585.9L3316.2,614.1L3316.4,615.9L3529.2,588.1C3529.067,587.367 3528.967,586.633 3528.9,585.9Z" style="fill:white;fill-rule:nonzero;"/>
                            <path id="_-Path-128" serif:id="&lt;Path&gt;" d="M3577.2,631.3L3571.7,845.7L3573.5,845.8L3579.3,631.3L3577.2,631.3Z" style="fill:white;fill-rule:nonzero;"/>
                            <path id="_-Path-129" serif:id="&lt;Path&gt;" d="M3529.2,588.6L3318.3,627.9L3318.7,629.6L3529.6,590.7C3529.467,589.967 3529.333,589.267 3529.2,588.6Z" style="fill:white;fill-rule:nonzero;"/>
                            <path id="_-Path-130" serif:id="&lt;Path&gt;" d="M3541.8,614.7L3386.4,762.4L3386.4,762.5L3387.6,763.8L3543.3,616.2C3542.833,615.667 3542.333,615.167 3541.8,614.7Z" style="fill:white;fill-rule:nonzero;"/>
                            <path id="_-Path-131" serif:id="&lt;Path&gt;" d="M3530.4,593.8L3324.7,654.9L3325.2,656.6L3531,595.9C3530.8,595.167 3530.6,594.467 3530.4,593.8Z" style="fill:white;fill-rule:nonzero;"/>
                            <path id="_-Path-132" serif:id="&lt;Path&gt;" d="M3529.7,591.2L3321.2,641.5L3321.6,643.2L3530.2,593.3C3530.067,592.633 3529.9,591.933 3529.7,591.2Z" style="fill:white;fill-rule:nonzero;"/>
                            <path id="_-Path-133" serif:id="&lt;Path&gt;" d="M3528.7,583.3L3314.8,600.3L3314.9,602.1L3528.8,585.4C3528.733,584.667 3528.7,583.967 3528.7,583.3Z" style="fill:white;fill-rule:nonzero;"/>
                            <path id="_-Path-134" serif:id="&lt;Path&gt;" d="M3566.6,629.7L3516.7,838.3L3518.4,838.7L3568.7,630.2C3568.033,630 3567.333,629.833 3566.6,629.7Z" style="fill:white;fill-rule:nonzero;"/>
                            <path id="_-Path-135" serif:id="&lt;Path&gt;" d="M3543.7,616.6L3396.2,772.3L3397.4,773.6L3545.2,618.1C3544.733,617.567 3544.233,617.067 3543.7,616.6Z" style="fill:white;fill-rule:nonzero;"/>
                            <path id="_-Path-136" serif:id="&lt;Path&gt;" d="M3561.5,628.1L3490.1,830.3L3491.8,830.9L3563.6,628.8C3562.867,628.533 3562.167,628.3 3561.5,628.1Z" style="fill:white;fill-rule:nonzero;"/>
                            <path id="_-Path-137" serif:id="&lt;Path&gt;" d="M3571.8,630.8L3544,843.5L3545.8,843.7L3574,631C3573.267,630.933 3572.533,630.867 3571.8,630.8Z" style="fill:white;fill-rule:nonzero;"/>
                            <path id="_-Path-138" serif:id="&lt;Path&gt;" d="M3574.5,631.1L3557.8,845L3559.6,845.1L3576.6,631.2C3575.933,631.2 3575.233,631.167 3574.5,631.1Z" style="fill:white;fill-rule:nonzero;"/>
                            <path id="_-Path-139" serif:id="&lt;Path&gt;" d="M3559.1,627L3477.1,825.3L3478.8,826L3561,627.9C3560.333,627.633 3559.7,627.333 3559.1,627Z" style="fill:white;fill-rule:nonzero;"/>
                            <path id="_-Path-140" serif:id="&lt;Path&gt;" d="M3569.2,630.3L3530.3,841.2L3532.1,841.6L3571.3,630.7C3570.633,630.567 3569.933,630.433 3569.2,630.3Z" style="fill:white;fill-rule:nonzero;"/>
                            <path id="_-Path-141" serif:id="&lt;Path&gt;" d="M3564.1,628.9L3503.3,834.7L3505,835.2L3566.1,629.5C3565.433,629.367 3564.767,629.167 3564.1,628.9Z" style="fill:white;fill-rule:nonzero;"/>
                            <path id="_-Path-142" serif:id="&lt;Path&gt;" d="M3549.8,621.8L3428.4,798.7L3429.9,799.7L3551.6,623C3551,622.6 3550.4,622.2 3549.8,621.8Z" style="fill:white;fill-rule:nonzero;"/>
                            <path id="_-Path-143" serif:id="&lt;Path&gt;" d="M3547.7,620.1L3417.2,790.4L3418.6,791.5L3549.4,621.4C3548.8,621 3548.233,620.567 3547.7,620.1Z" style="fill:white;fill-rule:nonzero;"/>
                            <path id="_-Path-144" serif:id="&lt;Path&gt;" d="M3545.6,618.4L3406.4,781.7L3407.8,782.8L3547.3,619.8C3546.7,619.333 3546.133,618.867 3545.6,618.4Z" style="fill:white;fill-rule:nonzero;"/>
                            <path id="_-Path-145" serif:id="&lt;Path&gt;" d="M3554.3,624.6L3452.1,813.2L3452.1,813.3L3453.7,814.1L3556.2,625.7C3555.533,625.367 3554.9,625 3554.3,624.6Z" style="fill:white;fill-rule:nonzero;"/>
                            <path id="_-Path-146" serif:id="&lt;Path&gt;" d="M3556.6,625.9L3464.5,819.6L3466.1,820.4L3558.6,626.8C3557.933,626.533 3557.267,626.233 3556.6,625.9Z" style="fill:white;fill-rule:nonzero;"/>
                            <path id="_-Path-147" serif:id="&lt;Path&gt;" d="M3552,623.3L3440.1,806.2L3440.1,806.3L3441.6,807.2L3553.8,624.4C3553.2,624 3552.6,623.633 3552,623.3Z" style="fill:white;fill-rule:nonzero;"/>
                        </g>
                    </g>
                </g>
                <path id="_-Path-148" serif:id="&lt;Path&gt;" d="M3111,450.9L3111.6,757.1L3165.7,757.1L3165.7,587.3L3363.1,786L3363.1,615L3422.2,615L3422.2,559.7L3364.3,559.7L3364.3,493.7L3447.3,493.7L3447.3,447.1L3314.7,447.1L3314.7,663.2L3111,450.9Z" style="fill:white;fill-rule:nonzero;"/>
                <path id="_-Path-149" serif:id="&lt;Path&gt;" d="M3720,506.3L3719.3,841.4L3665.3,841.4L3665.3,642.7L3443.1,846.8L3441.9,502.8L3491.5,502.5L3491.5,724L3720,506.3Z" style="fill:white;fill-rule:nonzero;"/>
                <g id="_-Group-7" serif:id="&lt;Group&gt;">
                    <path id="_-Path-150" serif:id="&lt;Path&gt;" d="M3531.9,468.1L3523.5,468.1L3523.5,457.8L3508.1,457.8L3508.1,454L3490.2,454L3490.2,457.8L3474.7,457.8L3474.7,466.1L3364.2,466.1L3364.2,475.1L3474.7,475.1L3474.7,482.6L3523.5,482.6L3523.5,472L3531.9,472L3531.9,468.1Z" style="fill:rgb(227,6,19);fill-rule:nonzero;"/>
                    <rect id="_-Path-151" serif:id="&lt;Path&gt;" x="3258.2" y="466.1" width="56.5" height="9" style="fill:rgb(227,6,19);fill-rule:nonzero;"/>
                </g>
                <g id="_-Group-8" serif:id="&lt;Group&gt;">
                </g>
            </g>
        </g>
    </g>
</svg>
